# xmcd CD database file
#
# Track frame offsets:
#	150
#	17766
#	35388
#	56672
#
# Disc length: 1160 seconds
#
# Revision: 0
# Processed by: cddbd v1.5.2PL0 Copyright (c) Steve Scherf et al.
# Submitted via: CDex 1.51
#
DISCID=2a048604
DTITLE=Slicker - Knock Me Down Girl
DYEAR=1900
DGENRE=New Age
TTITLE0=Knock Me Down Girl[Album]
TTITLE1=Knock Me Down Girl[Inst]
TTITLE2=Knock Me Down Girl[Spanova Remix]
TTITLE3=Knock Me Down Girl[Telepon Tel Aviv Remix]
EXTD=
EXTT0=
EXTT1=
EXTT2=
EXTT3=
PLAYORDER=
